PathFileType	4	(X/Y/Z)	 s03c0202.trc
DataRate	CameraRate	NumFrames	NumMarkers	Units	OrigDataRate	OrigDataStartFrame	OrigNumFrames
200	200	5	52	mm	200	1	2000
Frame#	Time	racr			lacr			c7			jug			rlel			rdr			llel			ldr			s2			lic			ric			lasi			rasi			rpsi			lpsi			rgt			lgt			rth1			rth2			rth3			rth4			rlfc			rmfc			rsh1			rsh2			rsh3			rsh4			rlmal			rmmal			rcal			rtoe			rmt5			rmt1			lth1			lth2			lth4			lth3			llfc			lmfc			lsh1			lsh2			lsh3			lsh4			llmal			lmmal			lcal			ltoe			lmt1			lmt5			SBIKE			LBIKE			RBIKE			
		X1	Y1	Z1	X2	Y2	Z2	X3	Y3	Z3	X4	Y4	Z4	X5	Y5	Z5	X6	Y6	Z6	X7	Y7	Z7	X8	Y8	Z8	X9	Y9	Z9	X10	Y10	Z10	X11	Y11	Z11	X12	Y12	Z12	X13	Y13	Z13	X14	Y14	Z14	X15	Y15	Z15	X16	Y16	Z16	X17	Y17	Z17	X18	Y18	Z18	X19	Y19	Z19	X20	Y20	Z20	X21	Y21	Z21	X22	Y22	Z22	X23	Y23	Z23	X24	Y24	Z24	X25	Y25	Z25	X26	Y26	Z26	X27	Y27	Z27	X28	Y28	Z28	X29	Y29	Z29	X30	Y30	Z30	X31	Y31	Z31	X32	Y32	Z32	X33	Y33	Z33	X34	Y34	Z34	X35	Y35	Z35	X36	Y36	Z36	X37	Y37	Z37	X38	Y38	Z38	X39	Y39	Z39	X40	Y40	Z40	X41	Y41	Z41	X42	Y42	Z42	X43	Y43	Z43	X44	Y44	Z44	X45	Y45	Z45	X46	Y46	Z46	X47	Y47	Z47	X48	Y48	Z48	X49	Y49	Z49	X50	Y50	Z50	X51	Y51	Z51	X52	Y52	Z52	
1	0.0050	540.398823	1344.797174	-10.237660	564.087123	1395.691229	-303.597848	477.087734	1435.868333	-158.129344	502.486402	1260.566040	-168.249017	535.855090	1124.546391	170.092416	727.682227	987.662012	15.441897	530.358711	1179.132333	-494.945725	724.578963	981.380942	-400.596724	-76.339167	1236.741548	-250.209264	128.812677	1223.919179	-407.701362	83.294956	1234.985224	-51.267692	120.045768	1151.179690	-374.310266	NaN	NaN	NaN	-42.579215	1282.740693	-205.516582	-26.976318	1275.407201	-286.079921	23.502488	1172.302154	-41.573296	38.512545	1125.347464	-446.527389	144.751367	1067.641851	-32.134481	231.534403	1051.292918	-36.370770	299.134078	997.443319	-42.614044	246.850189	1083.022419	-48.742923	402.326700	916.827391	-69.446914	403.340517	903.217989	-196.090543	348.584469	761.088967	-45.747477	334.309627	674.271696	-60.071965	277.348274	606.120409	-59.846115	358.408143	664.468692	-87.807290	216.270224	487.428435	-75.632976	237.738290	497.053254	-167.560240	159.235490	423.672551	-114.665046	463.287562	492.604383	-104.365934	349.015369	450.408832	-37.094643	374.333411	469.304830	-153.078046	131.982385	997.017551	-461.884572	200.894129	944.072536	-461.878211	228.827669	965.595009	-451.901736	234.018008	861.312736	-455.373671	314.879206	756.848165	-433.964979	306.087524	746.019671	-308.594989	217.649940	611.096853	-455.323920	197.094109	531.511118	-434.187158	134.315832	465.597148	-427.475167	224.196620	518.823617	-410.073558	64.820993	358.090638	-403.127739	107.517829	358.419070	-317.759004	-6.960553	347.562461	-353.170384	249.806034	170.715501	-350.224109	169.834146	220.169074	-313.099243	138.233227	218.740216	-423.660856	-213.363587	946.077984	-230.400097	-5.588154	83.538760	-434.341334	-11.245002	80.970338	-34.388653	
2	0.0100	540.637237	1344.238607	-10.019975	564.472264	1395.334535	-303.237273	477.396086	1435.431031	-157.848601	502.609036	1260.075259	-168.025364	536.034371	1124.291944	170.454127	727.687376	987.534395	15.624239	530.788931	1179.358303	-495.051327	724.431620	981.359071	-400.375279	-76.223268	1236.968230	-250.215669	128.910738	1224.077890	-407.626658	83.340728	1234.951378	-51.188389	120.046949	1151.380672	-374.308445	NaN	NaN	NaN	-42.420144	1282.873572	-205.505336	-26.807030	1275.630582	-286.054555	23.490355	1172.262457	-41.573829	38.663072	1125.778077	-446.629356	144.638970	1067.380820	-32.423879	231.405465	1050.817899	-36.053911	298.715758	996.497901	-42.760209	246.781677	1082.267723	-48.783420	401.843797	915.320867	-69.704378	402.604446	901.901321	-196.190260	348.429213	759.573204	-45.822974	334.413243	672.696399	-60.130720	277.711301	604.366759	-59.881146	358.517464	663.014285	-87.896326	216.956294	485.538261	-75.607831	238.326618	495.186781	-167.579592	160.141528	421.441764	-114.625504	463.898736	491.797631	-104.339803	349.852711	449.051818	-37.082370	375.076488	468.109117	-153.053754	132.398901	997.769204	-461.765268	201.362882	944.877875	-461.657431	229.245700	966.411697	-451.626315	234.599647	862.109871	-455.278179	315.397693	757.654176	-433.988653	306.535562	746.608856	-308.627702	217.935701	611.939738	-455.399697	197.044472	532.529270	-434.205701	134.075038	466.737377	-427.596581	224.082760	519.749972	-410.041830	64.179456	359.391194	-403.119788	107.349831	359.465966	-318.012599	-7.670352	348.986720	-353.301356	248.723879	171.549797	-350.146245	168.932047	221.259861	-313.136707	137.311387	219.849851	-423.595889	-213.358966	946.091609	-230.383519	-5.604439	83.438041	-434.382775	-11.272278	81.035831	-34.404691	
3	0.0150	540.820666	1343.829733	-9.838242	564.791480	1394.968598	-302.832889	477.679614	1435.064498	-157.603973	502.647059	1259.601179	-167.819926	536.169221	1124.053478	170.874726	727.729557	987.438931	15.830673	531.236874	1179.567825	-495.173288	724.358470	981.338222	-400.258525	-76.147330	1237.160404	-250.200512	128.994355	1224.253510	-407.581542	83.356043	1234.870578	-51.116248	120.015873	1151.568826	-374.358610	NaN	NaN	NaN	-42.303245	1282.995284	-205.471551	-26.701199	1275.862716	-286.030659	23.481732	1172.191239	-41.603303	38.801952	1126.181986	-446.734820	144.444755	1066.935679	-32.441257	231.184799	1050.066654	-36.198300	298.235046	995.680916	-42.833016	246.640007	1081.565287	-48.858136	401.205831	914.059532	-69.937793	401.894761	900.613812	-196.372031	348.221129	758.037171	-45.964080	334.559543	671.162444	-60.213403	278.039248	602.623247	-59.895899	358.580098	661.537425	-88.006453	217.649659	483.606960	-75.597965	238.985261	493.342308	-167.576332	161.688774	417.558572	-116.319535	464.510949	490.981302	-104.325264	350.686770	447.745014	-37.004628	375.784675	466.867920	-153.000277	132.729842	998.385696	-461.690619	201.782709	945.631969	-461.434796	229.578288	967.125693	-451.369591	235.105874	862.874177	-455.164127	315.802379	758.400132	-433.962614	306.804705	747.192666	-308.580813	218.164252	612.751126	-455.440084	196.944007	533.367332	-434.136397	133.750134	467.851818	-427.668831	223.914901	520.617565	-409.962312	63.482542	360.728987	-403.181062	106.280714	360.813056	-317.927763	-8.435259	350.373137	-353.408275	247.715146	172.599563	-350.031466	169.108595	223.298342	-312.718930	136.324383	220.999742	-423.587840	-213.359511	946.093925	-230.400050	-5.590588	83.437406	-434.379586	-11.229192	80.971550	-34.385329	
4	0.0200	540.971910	1343.430175	-9.643922	566.173510	1394.153601	-300.294900	477.857800	1434.480858	-154.871895	500.372432	1259.112234	-168.974092	536.309194	1123.723870	171.255435	727.864125	987.004335	16.199826	531.657077	1179.755673	-495.286868	724.234866	981.174418	-399.948005	-76.098185	1237.340328	-250.216890	128.380526	1224.802921	-408.463127	83.492203	1234.660839	-50.990381	119.296989	1152.254338	-375.400350	NaN	NaN	NaN	-42.279389	1282.926933	-205.329915	-26.634149	1276.081160	-286.013261	23.445466	1172.100808	-41.611657	38.843844	1126.920798	-447.092283	144.370234	1066.507297	-32.514037	230.903043	1049.336306	-36.322173	297.831268	994.734123	-43.038710	246.499232	1080.733509	-48.926990	400.496315	912.716331	-70.243606	401.124782	899.332576	-196.534834	348.063164	756.495480	-46.127102	334.698897	669.630519	-60.358215	278.408749	600.960689	-59.695975	359.744676	660.872155	-88.093855	218.347183	481.630941	-75.550817	240.466401	490.776451	-166.586797	162.127772	416.017855	-115.967114	465.163351	490.066070	-104.220412	351.636140	446.024669	-37.245250	376.536873	465.754909	-152.954279	133.054593	998.988362	-461.567413	202.679644	945.484122	-459.521229	230.724750	966.425662	-449.201292	236.218065	862.651298	-453.267887	316.825225	758.232937	-432.249425	306.914151	747.912150	-308.553696	218.935882	612.825885	-454.084736	197.111724	533.156048	-432.182993	133.374571	468.952761	-427.680192	223.548749	522.051207	-408.088868	62.729561	362.072440	-403.266975	105.391103	362.243825	-317.990006	-9.264572	351.849392	-353.562573	246.665905	173.587562	-350.080194	166.122242	220.512448	-305.652791	136.006901	220.571906	-421.319239	-213.385551	946.100681	-230.695727	-5.587114	83.525655	-434.319128	-11.239105	80.978814	-34.386506	
5	0.0250	541.105728	1343.100633	-9.553759	566.071217	1394.337420	-300.956359	478.144195	1434.291274	-156.106417	500.279119	1259.476746	-170.256547	535.616217	1123.904670	170.843179	727.278816	987.749862	15.188028	531.824350	1180.268542	-496.265940	724.199544	981.704891	-400.990952	-76.141938	1237.514366	-250.258831	129.451083	1225.789501	-409.974423	83.627024	1234.646356	-51.240656	120.269914	1153.338391	-377.078597	NaN	NaN	NaN	-42.131742	1283.013654	-205.313261	-26.715490	1276.418955	-285.919407	23.394249	1172.070937	-41.622310	38.925513	1127.247295	-447.204161	144.232055	1066.007432	-32.632163	230.659855	1048.535337	-36.569399	296.784634	994.052130	-44.000398	245.686335	1080.400009	-49.831605	399.539326	911.722902	-71.838895	400.434648	898.064324	-196.771598	347.068002	755.440385	-47.129763	334.136923	668.375480	-61.542895	278.876060	599.158370	-60.038634	359.550319	659.926766	-89.387646	219.135444	479.639226	-75.710220	240.339748	489.445351	-167.741586	162.566209	414.403092	-115.395849	465.835603	489.176665	-104.252572	352.523768	444.726486	-37.277430	377.292528	464.277678	-152.844873	133.270024	999.343768	-461.407273	202.756289	946.686567	-460.676029	230.404652	968.429104	-450.699548	236.023183	864.240968	-455.067383	316.852762	759.433674	-433.499350	307.067115	748.588236	-308.544127	218.584867	614.275675	-455.829738	196.879558	535.279833	-434.717595	133.005387	469.973787	-427.737830	223.149253	522.909928	-408.011037	61.584495	364.396724	-404.653325	104.402708	363.220349	-319.032334	-10.114890	353.316422	-353.694804	245.650122	175.769264	-351.264112	166.489644	223.699920	-307.563169	134.363677	223.259045	-423.436163	-213.585116	946.132516	-231.222715	-5.795721	84.359837	-434.894868	-11.252739	81.045541	-34.455786	
